<svg _ngcontent-nyn-c9="" preserveAspectRatio="xMidYMid meet" xmlns="http://www.w3.org/2000/svg" viewBox="0 0 106 17" class="pointer" fill="#1c1c1c" style="height: 15px; width: 93px;"><g _ngcontent-nyn-c9=""><path _ngcontent-nyn-c9="" d="M70.9451 13.6283H61.8872V9.82295H70.2151C70.4358 9.82295 70.6162 9.62897 70.6162 9.38923V7.28167C70.6162 7.04192 70.4358 6.84795 70.2151 6.84795H61.8872V3.36295H70.7584C70.9791 3.36295 71.1595 3.16897 71.1595 2.92923V0.821667C71.1595 0.581923 70.9791 0.387949 70.7584 0.387949H59.3659C59.1452 0.387949 58.9648 0.581923 58.9648 0.821667V16.1674C58.9648 16.4072 59.1452 16.6012 59.3659 16.6012H70.9473C71.168 16.6012 71.3484 16.4072 71.3484 16.1674V14.0599C71.3462 13.8223 71.168 13.6283 70.9451 13.6283ZM32.8542 0.387949H30.4263C30.2056 0.387949 30.0252 0.581923 30.0252 0.821667V16.1674C30.0252 16.4072 30.2056 16.6012 30.4263 16.6012H32.8542C33.0749 16.6012 33.2553 16.4072 33.2553 16.1674V0.821667C33.2553 0.581923 33.0771 0.387949 32.8542 0.387949ZM51.6768 8.4041C50.9446 7.81782 50.1148 7.49744 48.5019 7.17705L45.6347 6.62346C44.3358 6.36846 43.9772 6.23987 43.5485 5.97397C43.1198 5.72987 42.8736 5.31577 42.8736 4.84282C42.8736 3.6441 44.2255 2.83769 46.2374 2.83769C47.4514 2.83769 48.3512 3.11013 48.9921 3.67026C49.4421 4.05603 49.6246 4.42654 49.6925 5.13923C49.7031 5.25038 49.7456 5.355 49.8198 5.43564L49.9323 5.55769C50.0151 5.64705 50.1276 5.69936 50.2443 5.69936H52.1268C52.2732 5.69936 52.409 5.6209 52.4897 5.49013L52.5533 5.38769C52.6128 5.29397 52.6404 5.17628 52.6276 5.06295C52.4387 3.23 51.957 2.1991 50.8831 1.30769C49.8262 0.440256 48.2706 0 46.2565 0C42.3663 0 39.949 1.92667 39.949 5.02808C39.949 6.65833 40.7492 8.12731 41.9928 8.77244C42.6804 9.11679 43.7734 9.4459 45.2505 9.75103L47.9034 10.2349C49.8517 10.6141 50.1212 11.2701 50.1212 11.924C50.1212 13.3036 48.7757 14.1601 46.6109 14.1601C45.0744 14.1601 43.9453 13.7962 43.2471 13.0682C42.7781 12.6062 42.5955 12.1136 42.5616 11.1677C42.5573 11.0565 42.5191 10.9476 42.4512 10.8626L42.3536 10.7427C42.2708 10.6403 42.1499 10.5836 42.0247 10.5836H40.0785C39.9427 10.5836 39.8153 10.6512 39.7326 10.7667L39.654 10.8756C39.5883 10.9672 39.5543 11.0827 39.5607 11.196C39.6392 12.9004 39.9193 13.8223 40.6452 14.79C41.7488 16.2546 43.7289 16.9956 46.5303 16.9956C48.3745 16.9956 49.6607 16.6753 50.8258 15.9255C52.269 15.0167 53.1306 13.4344 53.1306 11.6908C53.1306 10.3329 52.6 9.13423 51.6768 8.4041ZM105.598 0.387949H103.004C102.875 0.387949 102.752 0.455513 102.678 0.571026L98.4564 7.04628L94.2734 0.573205C94.1991 0.457692 94.076 0.387949 93.9444 0.387949H91.2045C90.8756 0.387949 90.6867 0.795513 90.8819 1.08103L96.939 9.93628V16.1696C96.939 16.4094 97.1194 16.6033 97.3401 16.6033H99.4603C99.681 16.6033 99.8614 16.4094 99.8614 16.1696V9.93628L105.918 1.08103C106.118 0.795513 105.929 0.387949 105.598 0.387949ZM89.2032 13.6283H80.8753V0.821667C80.8753 0.581923 80.6949 0.387949 80.4742 0.387949H78.354C78.1333 0.387949 77.9529 0.581923 77.9529 0.821667V16.1674C77.9529 16.4072 78.1333 16.6012 78.354 16.6012H89.2032C89.4239 16.6012 89.6043 16.4072 89.6043 16.1674V14.0599C89.6043 13.8223 89.426 13.6283 89.2032 13.6283ZM24.3438 0.387949H21.7843C21.57 0.387949 21.3408 0.568846 21.275 0.788974L17.8326 12.0831C17.7647 12.3032 17.6565 12.3032 17.5886 12.0831L14.1462 0.786795C14.0783 0.566667 13.8491 0.385769 13.6347 0.385769H10.9946C10.7803 0.385769 10.5511 0.566667 10.4853 0.786795L7.04291 12.0831C6.975 12.3032 6.86676 12.3032 6.79884 12.0831L3.35649 0.786795C3.28857 0.566667 3.05937 0.385769 2.84714 0.385769H0.285531C0.0711791 0.385769 -0.0476693 0.566667 0.0181218 0.786795L4.71688 16.2023C4.78479 16.4224 5.014 16.6033 5.22623 16.6033H8.60916C8.82351 16.6033 9.05272 16.4224 9.11851 16.2023L12.1895 6.12436C12.2574 5.90423 12.3656 5.90423 12.4335 6.12436L15.5045 16.2023C15.5724 16.4224 15.8016 16.6033 16.0138 16.6033H19.3968C19.6111 16.6033 19.8403 16.4224 19.9061 16.2023L24.6049 0.786795C24.677 0.566667 24.5582 0.387949 24.3438 0.387949Z"></path></g></svg>